<?xml version="1.0" encoding="UTF-8" standalone="no"?>
<svg
   xmlns:dc="http://purl.org/dc/elements/1.1/"
   xmlns:cc="http://creativecommons.org/ns#"
   xmlns:rdf="http://www.w3.org/1999/02/22-rdf-syntax-ns#"
   xmlns:svg="http://www.w3.org/2000/svg"
   xmlns="http://www.w3.org/2000/svg"
   xmlns:sodipodi="http://sodipodi.sourceforge.net/DTD/sodipodi-0.dtd"
   xmlns:inkscape="http://www.inkscape.org/namespaces/inkscape"
   viewBox="0 0 302.18448 178.53483"
   data-svgdocument=""
   id="_lozZXmrQ4Bjc2v8Jjk5tP"
   class="fl-svgdocument"
   overflow="hidden"
   style="overflow:visible"
   version="1.1"
   sodipodi:docname="logo.svg"
   width="302.18448"
   height="178.53484"
   inkscape:version="0.92.5 (2060ec1f9f, 2020-04-08)">
  <metadata
     id="metadata877">
    <rdf:RDF>
      <cc:Work
         rdf:about="">
        <dc:format>image/svg+xml</dc:format>
        <dc:type
           rdf:resource="http://purl.org/dc/dcmitype/StillImage" />
        <dc:title></dc:title>
      </cc:Work>
    </rdf:RDF>
  </metadata>
  <sodipodi:namedview
     pagecolor="#ffffff"
     bordercolor="#666666"
     borderopacity="1"
     objecttolerance="10"
     gridtolerance="10"
     guidetolerance="10"
     inkscape:pageopacity="0"
     inkscape:pageshadow="2"
     inkscape:window-width="2560"
     inkscape:window-height="1403"
     id="namedview875"
     showgrid="false"
     fit-margin-top="0"
     fit-margin-left="0"
     fit-margin-right="0"
     fit-margin-bottom="0"
     inkscape:zoom="2.3925781"
     inkscape:cx="151.09225"
     inkscape:cy="71.294941"
     inkscape:window-x="1920"
     inkscape:window-y="0"
     inkscape:window-maximized="1"
     inkscape:current-layer="_lozZXmrQ4Bjc2v8Jjk5tP" />
  <rect
     x="0"
     y="0"
     width="99.822624%"
     height="99.947746%"
     id="rect866"
     style="fill:#ffffff;stroke-width:0.99885154" />
  <defs
     id="_OCOhh_n_vN0Rio0Fz3bQR"
     transform="matrix(0.8672826290130615, 0, 0, 0.8672826290130615, -118.48664855957031, 84.14125061035156)">
    <linearGradient
       id="o_f224mf6f5_670"
       x1="0.28632489"
       y1="63.693829"
       x2="76.435799"
       y2="63.693829"
       gradientTransform="matrix(2.2165363,0,0,1.2384333,68.093637,-12.995233)"
       gradientUnits="userSpaceOnUse">
      <stop
         id="_BHsq4p1qAd5KargPr_mGY"
         offset="0%"
         stop-color="rgb(255, 192, 74)"
         style="stop-color:#09b8d7;stop-opacity:1" />
      <stop
         id="_Fil-3fkmygADUM_R7pzLf"
         offset="100%"
         stop-color="rgb(255, 99, 71)"
         style="stop-color:#045462;stop-opacity:1" />
    </linearGradient>
  </defs>
  <path
     id="_tMLbDoPeHYDf8vvgFsJ3A"
     d="m 231.64585,48.012261 c 3.24245,0 5.87051,-2.53378 5.87051,-5.65791 0,-3.1225 -2.62806,-5.65628 -5.87051,-5.65628 -3.24245,0 -5.8705,2.53378 -5.8705,5.65628 0,0.6863 0.13334,1.3417 0.36627,1.95156 l -17.13722,14.0659 -21.71312,-12.30624 c 0.12321,-0.48301 0.1958,-0.98716 0.1958,-1.50758 0,-3.48354 -2.93019,-6.3068 -6.54567,-6.3068 -1.46678,0 -2.81541,0.47 -3.9058,1.25551 L 157.41718,24.497549 c 0.0912,-0.357787 0.14516,-0.728584 0.14516,-1.112391 0,-2.571185 -2.1622,-4.652852 -4.82907,-4.652852 -2.66688,0 -4.82908,2.083294 -4.82908,4.652852 0,1.185575 0.46417,2.26544 1.22204,3.086722 l -9.84889,20.309271 c -0.43885,-0.0732 -0.88783,-0.12035 -1.35031,-0.12035 -1.4516,0 -2.80529,0.38869 -3.96825,1.05222 l -26.05776,-11.24588 c 0.0608,-0.36592 0.10127,-0.73835 0.10127,-1.12053 0,-3.870597 -3.25596,-7.007735 -7.27315,-7.007735 -4.015513,0 -7.273153,3.137138 -7.273153,7.007735 0,3.8706 3.25595,7.00774 7.273153,7.00774 2.28203,0 4.31427,-1.01319 5.6477,-2.59558 l 24.78172,10.69457 c -0.64815,1.09613 -1.02456,2.36139 -1.02456,3.71447 0,1.38561 0.49456,2.61022 1.1714,3.72424 l -13.89646,13.39585 c -1.91745,-1.31893 -4.22987,-2.10443 -6.75665,-2.10443 -4.45943,0 -8.29602,2.44108 -10.26579,5.99129 l -0.16204,-0.052 c -0.002,0.0195 -0.007,0.0374 -0.008,0.0569 l -19.373703,-8.4828 c 0.027,-0.21792 0.0422,-0.44072 0.0422,-0.66515 0,-3.23472 -2.72089,-5.85632 -6.07812,-5.85632 -3.35723,0 -6.07811,2.6216 -6.07811,5.85632 0,3.23471 2.72088,5.85632 6.07811,5.85632 1.77905,0 3.37411,-0.73998 4.48474,-1.91416 l 19.78723,8.66656 c -0.008,0.0212 -0.0152,0.0407 -0.0253,0.0602 l 0.0945,0.0309 c -0.0911,0.56595 -0.1823,1.12865 -0.1823,1.71575 0,3.17779 1.372263,6.04334 3.569903,8.09085 l -0.0287,0.0212 c 0.007,0.008 0.0135,0.0163 0.0203,0.0227 L 92.445387,102.89675 c -0.26162,-0.0439 -0.53,-0.0716 -0.80681,-0.0716 -2.49641,0 -4.52019,1.94831 -4.52019,4.35524 0,2.4053 2.02378,4.35524 4.52019,4.35524 2.4964,0 4.52019,-1.94994 4.52019,-4.35524 0,-0.81478 -0.23631,-1.57589 -0.64141,-2.22804 l 9.053893,-12.854289 1.19841,-1.42627 c 1.48703,0.6619 3.13779,1.04246 4.88477,1.04246 3.21038,0 6.12538,-1.25388 8.242,-3.27863 l 11.80347,8.11688 c -0.33589,0.83592 -0.56376,1.72388 -0.56376,2.66877 0,4.143809 3.48551,7.508629 7.79303,7.508629 3.64417,0 6.69251,-2.4118 7.54659,-5.66278 l 26.86458,-8.006289 c 1.64907,2.95174 4.88308,4.96022 8.60658,4.96022 2.1487,0 4.13029,-0.67817 5.74392,-1.8117 l 12.01783,10.751489 c -0.0641,0.31387 -0.0996,0.63913 -0.0996,0.9709 0,2.82001 2.37318,5.10659 5.3,5.10659 2.92681,0 5.2983,-2.28495 5.2983,-5.10659 0,-2.81838 -2.37149,-5.10496 -5.2983,-5.10496 -1.19335,0 -2.29217,0.38381 -3.17832,1.02619 L 189.23449,93.569861 c 0.93171,-1.44253 1.50729,-3.13876 1.50729,-4.96022 0,-4.57804 -2.8036,-8.39172 -7.86729,-9.23252 v -28.7774 c 1.68789,-0.27973 1.8263,-0.77738 2.55378,-1.4279 l 22.50305,12.76323 18.86901,25.45977 c -0.15529,0.37404 -0.24643,0.78225 -0.24643,1.21159 0,1.82959 1.53599,3.31278 3.43487,3.31278 1.89888,0 3.43825,-1.48319 3.43825,-3.31278 0,-1.82959 -1.54105,-3.31278 -3.43993,-3.31278 -0.0506,0 -0.10128,0.005 -0.15192,0.008 l -18.11114,-24.42707 16.76251,-13.75689 c 0.91147,0.56433 1.99509,0.89447 3.15974,0.89447 z m -60.4723,40.59414 c 0,0.34152 0.022,0.67654 0.0591,1.00831 l -25.78263,7.68265 c -0.88109,-3.21194 -3.90917,-5.58635 -7.52465,-5.58635 -1.89551,0 -3.56821,0.73346 -4.91685,1.81008 l -11.87942,-8.1673 c 0.75449,-1.4962 1.21022,-3.13876 1.21022,-4.90655 0,-2.42644 -0.822,-4.66911 -2.17739,-6.50359 l 13.89646,-13.39585 c 1.1579,0.65214 2.4272,1.12865 3.86698,1.12865 2.77153,0 5.19704,-1.39374 6.57774,-3.49167 l 29.06897,24.25468 c -1.48873,1.65395 -2.3985,3.80555 -2.3985,6.16694 z m 8.32133,-9.23252 c -1.6879,0.16263 -1.91576,0.44398 -2.69388,0.8164 l -30.9898,-25.77039 c 0.004,-0.0846 -0.0388,-0.16588 -0.0388,-0.25045 0,-2.41506 -1.21191,-4.5569 -3.04834,-5.9295 l 9.78812,-20.211689 c 0.0776,0.0032 0.14854,0.01139 0.22618,0.01139 0.89458,0 1.72672,-0.239067 2.44576,-0.648895 l 19.61506,15.009154 c -0.25488,0.6749 -0.19073,1.40025 -0.19073,2.15972 0,2.85741 1.51066,5.26597 4.88646,6.04171 z"
     inkscape:connector-curvature="0"
     style="fill:url(#o_f224mf6f5_670);stroke-width:1.65681398" />
  <path
     text="yawol"
     font-size="100"
     letter-spacing="0"
     side="left"
     offset="0.5"
     dx="0"
     dy="0"
     space="preserve"
     href=""
     font-scale="contain"
     x="0"
     y="0"
     font-weight="700"
     data-fl-textpath=""
     id="_bACKzYL2clyS4dqlExFb0"
     d="m 97.319917,130.00393 h 7.585283 l -12.288163,27.82095 q -1.87103,4.53125 -4.62702,6.38274 -2.75598,1.85148 -6.64976,1.85148 v 0 q -2.12388,0 -4.19719,-0.63341 -2.07331,-0.63339 -3.38809,-1.75403 v 0 l 2.8824,-5.40827 q 0.91024,0.77956 2.09859,1.21807 1.18837,0.43851 2.35144,0.43851 v 0 q 1.6182,0 2.62957,-0.75521 1.01137,-0.7552 1.82047,-2.50924 v 0 l 0.10113,-0.24361 -11.78247,-26.40798 h 8.14154 l 7.63585,17.78397 z m 20.884813,-0.38979 q 6.32107,0 9.70917,2.89904 3.38809,2.89902 3.38809,8.74581 v 0 14.95802 h -7.38301 v -3.26445 q -2.22502,3.65424 -8.29324,3.65424 v 0 q -3.13526,0 -5.43613,-1.02319 -2.30086,-1.02318 -3.51451,-2.82595 -1.21364,-1.80276 -1.21364,-4.09275 v 0 q 0,-3.65423 2.85712,-5.74933 2.85712,-2.0951 8.82421,-2.0951 v 0 h 6.27051 q 0,-2.48488 -1.56763,-3.82477 -1.56763,-1.33989 -4.70288,-1.33989 v 0 q -2.17445,0 -4.27304,0.65776 -2.0986,0.65777 -3.56508,1.7784 v 0 l -2.83184,-5.31083 q 2.22501,-1.51042 5.33498,-2.33871 3.10996,-0.8283 6.39692,-0.8283 z m -0.60682,21.87672 q 2.02274,0 3.59037,-0.90138 1.56762,-0.90138 2.22502,-2.65541 v 0 -2.67978 h -5.41084 q -4.85458,0 -4.85458,3.06956 v 0 q 0,1.4617 1.18836,2.31435 1.18836,0.85266 3.26167,0.85266 z m 57.04133,-21.48693 h 6.97846 l -9.86087,26.21308 h -7.58529 l -6.11879,-16.27355 -6.32107,16.27355 h -7.58528 l -9.8103,-26.21308 h 7.43358 l 6.42221,17.73525 6.67505,-17.73525 h 6.67504 l 6.47278,17.73525 z m 22.85699,26.60287 q -4.29833,0 -7.71171,-1.72968 -3.41338,-1.72967 -5.33499,-4.79923 -1.9216,-3.06956 -1.9216,-6.96742 v 0 q 0,-3.89785 1.9216,-6.96742 1.92161,-3.06956 5.33499,-4.79923 3.41338,-1.72968 7.71171,-1.72968 v 0 q 4.29832,0 7.68641,1.72968 3.3881,1.72967 5.3097,4.79923 1.92161,3.06957 1.92161,6.96742 v 0 q 0,3.89786 -1.92161,6.96742 -1.9216,3.06956 -5.3097,4.79923 -3.38809,1.72968 -7.68641,1.72968 z m 0,-6.23658 q 3.0341,0 4.98099,-1.97328 1.9469,-1.97329 1.9469,-5.28647 v 0 q 0,-3.31318 -1.9469,-5.28647 -1.94689,-1.97329 -4.98099,-1.97329 v 0 q -3.03412,0 -5.00629,1.97329 -1.97218,1.97329 -1.97218,5.28647 v 0 q 0,3.31318 1.97218,5.28647 1.97217,1.97328 5.00629,1.97328 z m 20.17685,5.84679 v -36.15262 h 7.88869 v 36.15262 z"
     inkscape:connector-curvature="0"
     style="font-weight:700;font-size:100px;font-family:Montserrat;letter-spacing:0;text-anchor:middle;fill:#424242;fill-opacity:1;stroke-width:0.49637303" />
</svg>
